<svg width="64" height="48" viewBox="0 0 64 48" fill="none" xmlns="http://www.w3.org/2000/svg">
<path d="M15.6903 48C12.6624 48 10.1849 47.4286 8.25807 46.2857C6.33118 45.1429 4.74839 43.6825 3.50968 41.9048C2.13333 39.746 1.16989 37.5238 0.619354 35.2381C0.206451 32.8254 0 30.8572 0 29.3333C0 23.1111 1.72043 17.4603 5.16129 12.381C8.60215 7.3016 13.9699 3.17461 21.2645 0L23.1226 3.42858C18.8559 5.07937 15.1398 7.68254 11.9742 11.2381C8.94624 14.7937 7.43226 18.4127 7.43226 22.0953C7.43226 23.6191 7.63871 24.9524 8.05161 26.0952C10.2538 24.4444 12.8 23.6191 15.6903 23.6191C19.2688 23.6191 22.3656 24.6984 24.9806 26.8572C27.5957 29.0159 28.9032 32 28.9032 35.8095C28.9032 39.3651 27.5957 42.2857 24.9806 44.5714C22.3656 46.8572 19.2688 48 15.6903 48ZM50.7871 48C47.7591 48 45.2817 47.4286 43.3548 46.2857C41.428 45.1429 39.8452 43.6825 38.6065 41.9048C37.2301 39.746 36.2667 37.5238 35.7161 35.2381C35.3032 32.8254 35.0968 30.8572 35.0968 29.3333C35.0968 23.1111 36.8172 17.4603 40.2581 12.381C43.6989 7.3016 49.0667 3.17461 56.3613 0L58.2194 3.42858C53.9527 5.07937 50.2366 7.68254 47.071 11.2381C44.043 14.7937 42.529 18.4127 42.529 22.0953C42.529 23.6191 42.7355 24.9524 43.1484 26.0952C45.3505 24.4444 47.8968 23.6191 50.7871 23.6191C54.3656 23.6191 57.4624 24.6984 60.0774 26.8572C62.6925 29.0159 64 32 64 35.8095C64 39.3651 62.6925 42.2857 60.0774 44.5714C57.4624 46.8572 54.3656 48 50.7871 48Z" fill="#435CFF"/>
</svg>
